<svg width="41" height="40" viewBox="0 0 41 40" fill="none" xmlns="http://www.w3.org/2000/svg">
<circle cx="20.25" cy="20" r="16" fill="#002D27" fill-opacity="0.965"/>
<path d="M25.8334 27.5V25.8333C25.8334 24.9493 25.4822 24.1014 24.857 23.4763C24.2319 22.8512 23.3841 22.5 22.5 22.5H17.5C16.616 22.5 15.7681 22.8512 15.143 23.4763C14.5179 24.1014 14.1667 24.9493 14.1667 25.8333V27.5" stroke="white" stroke-width="1.66667" stroke-linecap="round" stroke-linejoin="round"/>
<path d="M20 19.1667C21.841 19.1667 23.3334 17.6743 23.3334 15.8333C23.3334 13.9924 21.841 12.5 20 12.5C18.1591 12.5 16.6667 13.9924 16.6667 15.8333C16.6667 17.6743 18.1591 19.1667 20 19.1667Z" stroke="white" stroke-width="1.66667" stroke-linecap="round" stroke-linejoin="round"/>
<rect x="0.5" y="0.5" width="40" height="39" rx="19.5" stroke="#002D27" stroke-opacity="0.965"/>
</svg>
