<svg width="28" height="28" viewBox="0 0 28 28" fill="none" xmlns="http://www.w3.org/2000/svg">
<g clip-path="url(#clip0_195_3538)">
<g clip-path="url(#clip1_195_3538)">
<rect width="28" height="28" rx="5.6" fill="#002D27" fill-opacity="0.965"/>
<path d="M4.70654 7.48805C4.47382 7.02262 4.81227 6.475 5.33264 6.475H22.6674C23.1878 6.475 23.5262 7.02262 23.2935 7.48805L22.5935 8.88805C22.4749 9.1252 22.2325 9.275 21.9674 9.275H6.03264C5.7675 9.275 5.52511 9.1252 5.40654 8.88805L4.70654 7.48805Z" fill="white"/>
<path d="M7.33408 11.2604C7.17127 10.8046 7.50923 10.325 7.9933 10.325H20.0067C20.4908 10.325 20.8287 10.8046 20.6659 11.2604L20.1659 12.6604C20.0664 12.939 19.8025 13.125 19.5067 13.125H8.4933C8.19747 13.125 7.93358 12.939 7.83408 12.6604L7.33408 11.2604Z" fill="white"/>
<path d="M9.8907 14.5983C9.84401 14.3805 10.0101 14.175 10.2329 14.175H17.767C17.9899 14.175 18.156 14.3805 18.1093 14.5983L17.6593 16.6983C17.6247 16.8597 17.4821 16.975 17.317 16.975H10.6829C10.5179 16.975 10.3753 16.8597 10.3407 16.6983L9.8907 14.5983Z" fill="white"/>
<circle cx="14" cy="19.775" r="1.75" fill="white"/>
</g>
</g>
<defs>
<clipPath id="clip0_195_3538">
<rect width="28" height="28" fill="white"/>
</clipPath>
<clipPath id="clip1_195_3538">
<rect width="28" height="28" rx="5.6" fill="white"/>
</clipPath>
</defs>
</svg>
