<?xml version="1.0" standalone="no"?>
<!DOCTYPE svg PUBLIC "-//W3C//DTD SVG 20010904//EN"
 "http://www.w3.org/TR/2001/REC-SVG-20010904/DTD/svg10.dtd">
<svg version="1.0" xmlns="http://www.w3.org/2000/svg"
 width="1120.000000pt" height="1120.000000pt" viewBox="0 0 1120.000000 1120.000000"
 preserveAspectRatio="xMidYMid meet">
<metadata>
Created by potrace 1.14, written by Peter Selinger 2001-2017
</metadata>
<g transform="translate(0.000000,1120.000000) scale(0.100000,-0.100000)"
fill="#000000" stroke="none">
<path d="M1960 11183 c-58 -7 -106 -18 -108 -22 -2 -5 -11 -7 -21 -4 -30 8
-288 -62 -396 -107 -16 -7 -34 -14 -40 -15 -5 -2 -49 -21 -98 -44 -48 -22 -92
-41 -97 -41 -6 0 -10 -3 -10 -8 0 -4 -23 -18 -50 -31 -27 -13 -50 -28 -50 -32
0 -5 -5 -9 -12 -9 -17 0 -203 -129 -266 -185 -15 -13 -38 -33 -52 -45 -96 -83
-223 -218 -295 -315 -16 -22 -32 -42 -35 -45 -25 -24 -138 -211 -191 -317 -59
-117 -140 -322 -153 -386 -3 -12 -12 -48 -20 -80 -9 -31 -18 -72 -20 -90 -3
-17 -10 -56 -15 -86 -6 -30 -15 -84 -19 -120 -9 -86 -9 -7105 0 -7196 82 -761
549 -1432 1232 -1769 240 -119 466 -187 741 -223 76 -10 7127 -11 7215 -1 244
28 493 98 705 198 46 22 89 40 95 40 5 0 10 4 10 9 0 5 10 13 22 17 29 9 152
84 156 95 2 5 8 9 13 9 10 0 131 87 179 128 14 12 36 31 50 43 156 130 366
382 456 549 10 19 22 37 26 40 8 6 119 234 122 252 2 7 9 27 15 43 60 142 119
385 138 560 10 100 11 7152 0 7220 -7 51 -14 90 -21 135 -22 135 -70 304 -119
420 -5 14 -11 31 -13 39 -5 27 -146 301 -155 301 -5 0 -9 5 -9 11 0 6 -14 31
-30 56 -17 24 -30 48 -30 53 0 4 -3 10 -7 12 -5 2 -28 30 -53 63 -87 117 -216
256 -320 345 -14 12 -35 30 -47 41 -41 34 -167 124 -243 173 -69 44 -304 164
-333 170 -7 2 -25 9 -42 16 -85 35 -278 92 -355 105 -47 7 -135 23 -185 32
-22 4 -1642 8 -3600 9 -3026 1 -3576 0 -3665 -13z"/>
</g>
</svg>
